# Blender 3.3.1
# www.blender.org
mtllib BigMushroom.mtl
o Ceremony_Mushroom
v 2.877793 -1.625343 -0.222955
v 2.151027 6.507978 0.503830
v 2.877793 -1.625343 -3.401218
v 2.151027 6.507978 -4.127975
v 6.056056 -1.625343 -0.222955
v 6.782833 6.507978 0.503830
v 6.056056 -1.625343 -3.401218
v 6.782833 6.507978 -4.127975
v 2.245055 -1.625343 -1.812089
v 1.228913 6.507978 -1.812076
v 6.688789 -1.625343 -1.812089
v 7.704939 6.507978 -1.812076
v 4.466922 -1.625343 -4.033956
v 4.466926 6.507978 -5.050089
v 4.466922 -1.625343 0.409778
v 4.466926 6.507978 1.425936
v 4.466926 7.362321 -1.812076
v 4.466922 -2.102240 -1.812089
v 1.159007 0.850686 1.495873
v 1.159007 0.850686 -5.119986
v 7.774865 0.850686 -5.119986
v 7.774865 0.850686 1.495873
v 9.091959 0.850686 -1.812061
v -0.158097 0.850686 -1.812061
v 4.466931 0.850686 2.812967
v 4.466931 0.850686 -6.437089
v -0.006506 3.538422 2.661346
v -0.006506 3.538422 -6.285509
v 8.940350 3.538422 -6.285509
v 8.940350 3.538422 2.661346
v 10.721500 3.538422 -1.812088
v -1.787672 3.538422 -1.812088
v 4.466915 3.538422 4.442498
v 4.466915 3.538422 -8.066674
v 2.523057 4.112441 -3.755946
v 6.410806 4.112441 -3.755946
v 6.410806 4.112441 0.131803
v 7.184784 4.112441 -1.812074
v 1.749073 4.112441 -1.812074
v 4.466928 4.112441 0.905782
v 4.466928 4.112441 -4.529930
v 2.523057 4.112441 0.131803
v 0.398787 4.498251 2.256062
v 0.398787 4.498251 -5.880216
v 8.535065 4.498251 -5.880216
v 8.535065 4.498251 2.256062
v 10.154846 4.498251 -1.812083
v -1.221006 4.498251 -1.812083
v 4.466920 4.498251 3.875843
v 4.466920 4.498251 -7.500010
vn -0.6149 0.7496 -0.2448
vn 0.2448 0.7496 -0.6149
vn 0.6149 0.7496 0.2448
vn -0.2448 0.7496 0.6149
vn 0.2091 -0.9743 0.0833
vn -0.2538 0.9620 0.1011
vn -0.2538 0.9620 -0.1011
vn 0.2091 -0.9743 -0.0833
vn 0.6149 0.7496 -0.2448
vn -0.6149 0.7496 0.2448
vn -0.0833 -0.9743 -0.2091
vn 0.1011 0.9620 -0.2538
vn 0.1011 0.9620 0.2538
vn -0.0833 -0.9743 0.2091
vn 0.2448 0.7496 0.6149
vn -0.2448 0.7496 -0.6149
vn -0.2747 -0.6697 -0.6900
vn 0.2747 -0.6697 0.6900
vn -0.6900 -0.6697 0.2747
vn 0.6900 -0.6697 -0.2747
vn -0.2747 -0.6697 0.6900
vn 0.6900 -0.6697 0.2747
vn 0.2747 -0.6697 -0.6900
vn -0.6900 -0.6697 -0.2747
vn 0.0637 -0.9851 0.1599
vn -0.0637 -0.9851 -0.1599
vn 0.1599 -0.9851 -0.0637
vn -0.1599 -0.9851 0.0637
vn 0.0637 -0.9851 -0.1599
vn -0.1599 -0.9851 -0.0637
vn -0.0637 -0.9851 0.1599
vn 0.1599 -0.9851 0.0637
vn -0.1011 0.9620 -0.2538
vn -0.1011 0.9620 0.2538
vn 0.2538 0.9620 0.1011
vn 0.2538 0.9620 -0.1011
vn -0.8164 0.4773 -0.3251
vn 0.3251 0.4773 -0.8164
vn 0.8164 0.4773 0.3251
vn -0.3251 0.4773 0.8164
vn 0.8164 0.4773 -0.3251
vn -0.8164 0.4773 0.3251
vn 0.3251 0.4773 0.8164
vn -0.3251 0.4773 -0.8164
vn -0.3243 0.4809 -0.8146
vn 0.3243 0.4809 0.8146
vn -0.8146 0.4809 0.3243
vn 0.8146 0.4809 -0.3243
vn -0.3243 0.4809 0.8146
vn 0.8146 0.4809 0.3243
vn 0.3243 0.4809 -0.8146
vn -0.8146 0.4809 -0.3243
vn -0.2091 -0.9743 -0.0833
vn -0.2091 -0.9743 0.0833
vn 0.0833 -0.9743 0.2091
vn 0.0833 -0.9743 -0.2091
vt 0.182140 0.853578
vt 0.817853 0.853577
vt 0.551867 0.362583
vt 0.182142 0.853577
vt 0.817863 0.853577
vt 0.840093 0.247627
vt 0.182143 0.853578
vt 0.817854 0.853577
vt 0.436911 0.074356
vt 0.182144 0.853577
vt 0.817862 0.853578
vt 0.725137 -0.040599
vt 0.133773 0.853577
vt 0.866231 0.853578
vt 0.716629 0.356878
vt 0.133764 0.853577
vt 0.866234 0.853577
vt 0.560375 -0.034894
vt 0.866232 0.853577
vt 0.133769 0.853578
vt 0.834388 0.082865
vt 0.133765 0.853577
vt 0.866233 0.853577
vt 0.442616 0.239118
vt 0.638502 0.160992
vt 0.537516 1.192510
vt 0.462490 1.192511
vt -0.202239 0.320211
vt 1.202213 0.320209
vt -0.202225 0.320214
vt 1.202220 0.320213
vt -0.202212 0.320210
vt 1.202238 0.320213
vt -0.202226 0.320208
vt 1.202233 0.320209
vt -0.221767 0.320209
vt 1.221785 0.320210
vt -0.221779 0.320213
vt 1.221762 0.320211
vt -0.221782 0.320209
vt 1.221773 0.320208
vt 1.221774 0.320213
vt -0.221765 0.320213
vt 1.462859 -0.807242
vt 0.424224 0.659595
vt -0.462863 -0.807241
vt 1.462861 -0.807242
vt 1.137106 0.375271
vt -0.462862 -0.807241
vt 1.462865 -0.807241
vt 0.852781 -0.337611
vt -0.462861 -0.807242
vt 1.462862 -0.807241
vt 0.139900 -0.053287
vt -0.462861 -0.807242
vt 1.462861 -0.807242
vt 0.439641 -0.337610
vt -0.462862 -0.807241
vt 1.462863 -0.807241
vt 0.837365 0.659595
vt -0.462861 -0.807242
vt 1.462862 -0.807242
vt 0.139900 0.359854
vt -0.462859 -0.807242
vt 1.462862 -0.807241
vt 1.137106 -0.037870
vt -0.462865 -0.807241
vt 0.102812 -0.273616
vt 0.897188 -0.273617
vt 0.897196 -0.273617
vt 0.102820 -0.273620
vt 0.102812 -0.273622
vt 0.897188 -0.273621
vt 0.060388 -0.273621
vt 0.939619 -0.273620
vt 0.060388 -0.273616
vt 0.939606 -0.273618
vt 0.060381 -0.273621
vt 0.939612 -0.273622
vt 0.060393 -0.273617
vt 0.939613 -0.273616
vt 0.102805 -0.273618
vt 0.897179 -0.273621
vt 0.461729 0.572322
vt 1.049833 0.337764
vt 0.815274 -0.250339
vt 0.227172 -0.015781
vt 0.476615 -0.244906
vt 0.800390 0.566890
vt 0.232605 0.322879
vt 1.044401 -0.000896
s 0
usemtl MushTop
f 48/89/1 10/15/1 4/6/1 44/85/1
f 50/91/2 14/21/2 8/12/2 45/86/2
f 47/88/3 12/18/3 6/9/3 46/87/3
f 49/90/4 16/24/4 2/3/4 43/84/4
f 17/25/6 10/15/6 2/3/6
f 4/6/7 10/15/7 17/25/7
f 45/86/9 8/12/9 12/18/9 47/88/9
f 43/84/10 2/3/10 10/15/10 48/89/10
f 8/12/12 14/21/12 17/25/12
f 17/25/13 16/24/13 6/9/13
f 46/87/15 6/9/15 16/24/15 49/90/15
f 44/85/16 4/6/16 14/21/16 50/91/16
f 14/21/33 4/6/33 17/25/33
f 16/24/34 17/25/34 2/3/34
f 12/18/35 17/25/35 6/9/35
f 12/18/36 8/12/36 17/25/36
f 28/48/45 44/85/45 50/91/45 34/66/45
f 30/54/46 46/87/46 49/90/46 33/63/46
f 27/45/47 43/84/47 48/89/47 32/60/47
f 29/51/48 45/86/48 47/88/48 31/57/48
f 33/63/49 49/90/49 43/84/49 27/45/49
f 31/57/50 47/88/50 46/87/50 30/54/50
f 34/66/51 50/91/51 45/86/51 29/51/51
f 32/60/52 48/89/52 44/85/52 28/48/52
usemtl MushBot
f 18/27/5 11/16/5 5/8/5
f 7/10/8 11/17/8 18/26/8
f 3/4/11 13/19/11 18/26/11
f 18/27/14 15/22/14 1/2/14
f 20/30/17 26/42/17 13/19/17
f 22/34/18 25/41/18 15/23/18
f 19/28/19 24/39/19 9/14/19
f 21/32/20 23/37/20 11/17/20
f 25/40/21 19/29/21 1/2/21
f 23/36/22 22/35/22 5/8/22
f 26/43/23 21/33/23 7/11/23
f 24/38/24 20/31/24 3/5/24
f 28/49/25 34/65/25 41/81/25
f 30/55/26 33/62/26 40/79/26
f 27/46/27 32/59/27 39/77/27
f 29/52/28 31/56/28 38/75/28
f 33/64/29 27/44/29 42/83/29
f 31/58/30 30/53/30 37/73/30
f 34/67/31 29/50/31 36/70/31
f 32/61/32 28/47/32 35/69/32
f 39/76/37 35/69/37 20/31/37
f 41/80/38 36/70/38 21/33/38
f 38/74/39 37/73/39 22/35/39
f 40/78/40 42/83/40 19/29/40
f 36/71/41 38/75/41 23/37/41
f 42/82/42 39/77/42 24/39/42
f 37/72/43 40/79/43 25/41/43
f 35/68/44 41/81/44 26/42/44
f 9/13/53 3/5/53 18/27/53
f 9/14/54 18/26/54 1/1/54
f 15/23/55 18/26/55 5/7/55
f 13/20/56 7/11/56 18/27/56
f 3/4/17 20/30/17 13/19/17
f 9/13/24 24/38/24 3/5/24
f 1/1/19 19/28/19 9/14/19
f 15/22/21 25/40/21 1/2/21
f 5/7/18 22/34/18 15/23/18
f 11/16/22 23/36/22 5/8/22
f 7/10/20 21/32/20 11/17/20
f 13/20/23 26/43/23 7/11/23
f 20/30/44 35/68/44 26/42/44
f 24/38/37 39/76/37 20/31/37
f 19/28/42 42/82/42 24/39/42
f 25/40/40 40/78/40 19/29/40
f 22/34/43 37/72/43 25/41/43
f 23/36/39 38/74/39 22/35/39
f 21/32/41 36/71/41 23/37/41
f 26/43/38 41/80/38 21/33/38
f 41/80/31 34/67/31 36/70/31
f 35/68/25 28/49/25 41/81/25
f 39/76/32 32/61/32 35/69/32
f 42/82/27 27/46/27 39/77/27
f 40/78/29 33/64/29 42/83/29
f 37/72/26 30/55/26 40/79/26
f 38/74/30 31/58/30 37/73/30
f 36/71/28 29/52/28 38/75/28
