# Blender 3.3.1
# www.blender.org
mtllib SmolMushroom.mtl
o Teeny_Mushroom.000
v 3.950989 -0.208354 -1.296144
v 3.024203 2.743374 -0.369351
v 3.950989 -0.208354 -2.328019
v 3.024203 2.743374 -3.254802
v 4.982863 -0.208354 -1.296144
v 5.909653 2.743374 -0.369351
v 4.982863 -0.208354 -2.328019
v 5.909653 2.743374 -3.254802
v 3.745561 -0.208354 -1.812082
v 2.449759 2.743374 -1.812078
v 5.188290 -0.208354 -1.812082
v 6.484093 2.743374 -1.812078
v 4.466926 -0.208354 -2.533447
v 4.466926 2.743374 -3.829246
v 4.466926 -0.208354 -1.090717
v 4.466926 2.743374 0.205089
v 4.466927 3.297275 -1.812079
v 4.466926 -0.363186 -1.812082
v 3.392958 0.595528 -0.738099
v 3.392958 0.595528 -2.886044
v 5.540903 0.595528 -2.886044
v 5.540903 0.595528 -0.738099
v 5.968518 0.595528 -1.812073
v 2.965339 0.595528 -1.812073
v 4.466928 0.595528 -0.310484
v 4.466928 0.595528 -3.313663
v 2.503766 1.927917 0.151078
v 2.503766 1.927917 -3.775239
v 6.430083 1.927917 -3.775239
v 6.430083 1.927917 0.151078
v 7.211739 1.927917 -1.812084
v 1.722104 1.927917 -1.812084
v 4.466921 1.927917 0.932734
v 4.466921 1.927917 -4.556901
v 3.613862 2.179824 -2.665143
v 5.319996 2.179824 -2.665143
v 5.319996 2.179824 -0.959009
v 5.659655 2.179824 -1.812078
v 3.274199 2.179824 -1.812078
v 4.466928 2.179824 -0.619350
v 4.466928 2.179824 -3.004806
v 3.613862 2.179824 -0.959009
vn -0.7152 0.6382 -0.2848
vn 0.2848 0.6382 -0.7152
vn 0.7152 0.6382 0.2848
vn 0.1468 -0.9782 0.1468
vn -0.2633 0.9590 0.1048
vn -0.2633 0.9590 -0.1049
vn 0.1468 -0.9782 -0.1468
vn -0.2848 0.6382 0.7152
vn 0.7152 0.6382 -0.2848
vn -0.1468 -0.9782 -0.1468
vn 0.1049 0.9590 -0.2633
vn 0.1048 0.9590 0.2633
vn -0.1468 -0.9782 0.1468
vn -0.7152 0.6382 0.2848
vn 0.2848 0.6382 0.7152
vn -0.2747 -0.6697 -0.6900
vn 0.2747 -0.6697 0.6900
vn -0.6900 -0.6697 0.2747
vn 0.6900 -0.6697 -0.2747
vn -0.2747 -0.6697 0.6900
vn 0.6900 -0.6697 0.2747
vn 0.2747 -0.6697 -0.6900
vn -0.6900 -0.6697 -0.2747
vn 0.0637 -0.9851 0.1599
vn -0.0637 -0.9851 -0.1599
vn 0.1599 -0.9851 -0.0637
vn -0.1599 -0.9851 0.0637
vn 0.0637 -0.9851 -0.1599
vn -0.1599 -0.9851 -0.0637
vn -0.0637 -0.9851 0.1599
vn 0.1599 -0.9851 0.0637
vn -0.1049 0.9590 -0.2633
vn -0.1048 0.9590 0.2633
vn 0.2633 0.9590 0.1048
vn 0.2633 0.9590 -0.1048
vn -0.9142 0.1782 -0.3640
vn 0.3640 0.1782 -0.9142
vn 0.9142 0.1782 0.3640
vn -0.3640 0.1782 0.9142
vn 0.9142 0.1782 -0.3640
vn -0.9142 0.1782 0.3640
vn 0.3640 0.1782 0.9142
vn -0.3640 0.1782 -0.9142
vn -0.2848 0.6382 -0.7152
vt 0.495591 0.509847
vt 0.592656 0.170604
vt 0.490156 0.495591
vt 0.170604 0.407346
vt 0.509848 0.504411
vt 0.829398 0.592654
vt 0.504412 0.490155
vt 0.407347 0.829397
vt 0.490451 0.503643
vt 0.338552 0.212177
vt 0.509552 0.496359
vt 0.661450 0.787822
vt 0.496360 0.490451
vt 0.212178 0.661449
vt 0.503643 0.509552
vt 0.787823 0.338551
vt 0.500001 0.500000
vt 0.500002 0.500001
vt 0.488879 0.524833
vt 0.475170 0.488879
vt 0.511125 0.475169
vt 0.524834 0.511124
vt 0.525930 0.490115
vt 0.474074 0.509887
vt 0.509888 0.525929
vt 0.490116 0.474073
vt 0.647150 -0.023135
vt 0.276087 0.999900
vt 0.000101 0.276087
vt -0.023135 0.352850
vt 0.352851 1.023135
vt 0.723915 0.000101
vt 1.023135 0.647150
vt 0.999900 0.723914
vt 0.763601 0.969933
vt 0.999900 0.309391
vt 0.236399 0.030067
vt 0.000100 0.690609
vt 0.969933 0.236399
vt 0.690609 0.999900
vt 0.309391 0.000100
vt 0.030067 0.763601
vt 0.279135 0.401071
vt 0.598932 0.279135
vt 0.720868 0.598931
vt 0.710814 0.419619
vt 0.289189 0.580382
vt 0.580383 0.710813
vt 0.419620 0.289189
vt 0.401072 0.720868
s 0
g Teeny_Mushroom.000_MushTop
usemtl MushTop
f 32/37/1 10/10/1 4/4/1 28/30/1
f 34/42/2 14/14/2 8/8/2 29/31/2
f 31/35/3 12/12/3 6/6/3 30/33/3
f 17/17/5 10/10/5 2/2/5
f 4/4/6 10/10/6 17/17/6
f 33/39/8 16/16/8 2/2/8 27/27/8
f 29/31/9 8/8/9 12/12/9 31/35/9
f 8/8/11 14/14/11 17/17/11
f 17/17/12 16/16/12 6/6/12
f 27/27/14 2/2/14 10/10/14 32/37/14
f 30/33/15 6/6/15 16/16/15 33/39/15
f 14/14/32 4/4/32 17/17/32
f 16/16/33 17/17/33 2/2/33
f 12/12/34 17/17/34 6/6/34
f 12/12/35 8/8/35 17/17/35
f 28/30/44 4/4/44 14/14/44 34/42/44
g Teeny_Mushroom.000_MushBot
usemtl MushBot
f 18/18/4 11/11/4 5/5/4 15/15/4
f 13/13/7 7/7/7 11/11/7 18/18/7
f 3/3/10 13/13/10 18/18/10 9/9/10
f 9/9/13 18/18/13 15/15/13 1/1/13
f 3/3/16 20/20/16 26/26/16 13/13/16
f 5/5/17 22/22/17 25/25/17 15/15/17
f 1/1/18 19/19/18 24/24/18 9/9/18
f 7/7/19 21/21/19 23/23/19 11/11/19
f 15/15/20 25/25/20 19/19/20 1/1/20
f 11/11/21 23/23/21 22/22/21 5/5/21
f 13/13/22 26/26/22 21/21/22 7/7/22
f 9/9/23 24/24/23 20/20/23 3/3/23
f 35/43/24 28/29/24 34/41/24 41/49/24
f 37/45/25 30/34/25 33/40/25 40/48/25
f 42/50/26 27/28/26 32/38/26 39/47/26
f 36/44/27 29/32/27 31/36/27 38/46/27
f 40/48/28 33/40/28 27/28/28 42/50/28
f 38/46/29 31/36/29 30/34/29 37/45/29
f 41/49/30 34/41/30 29/32/30 36/44/30
f 39/47/31 32/38/31 28/29/31 35/43/31
f 24/24/36 39/47/36 35/43/36 20/20/36
f 26/26/37 41/49/37 36/44/37 21/21/37
f 23/23/38 38/46/38 37/45/38 22/22/38
f 25/25/39 40/48/39 42/50/39 19/19/39
f 21/21/40 36/44/40 38/46/40 23/23/40
f 19/19/41 42/50/41 39/47/41 24/24/41
f 22/22/42 37/45/42 40/48/42 25/25/42
f 20/20/43 35/43/43 41/49/43 26/26/43
